<svg width="19" height="32" viewBox="0 0 19 32" fill="none" xmlns="http://www.w3.org/2000/svg">
<path d="M18.2964 31.2964C17.3582 32.2345 15.837 32.2345 14.8989 31.2964L1.30884 17.7063C0.370645 16.7681 0.370644 15.247 1.30884 14.3088C2.24703 13.3706 3.76815 13.3706 4.70634 14.3088L18.2964 27.8988C19.2346 28.837 19.2346 30.3582 18.2964 31.2964Z" fill="#999999"/>
<path d="M18.2964 0.703645C17.3582 -0.234551 15.837 -0.234551 14.8989 0.703645L1.30884 14.2937C0.370645 15.2319 0.370645 16.753 1.30884 17.6912C2.24703 18.6294 3.76815 18.6294 4.70634 17.6912L18.2964 4.10115C19.2346 3.16295 19.2346 1.64184 18.2964 0.703645Z" fill="#999999"/>
</svg>
